<?xml version="1.0" encoding="UTF-8"?>
<svg id="Layer_1" data-name="Layer 1" xmlns="http://www.w3.org/2000/svg" viewBox="0 0 111.2 145.48">
  <defs>
    <style>
      .cls-1 {
        fill: #fff;
        stroke: #fff;
        stroke-miterlimit: 10;
      }
    </style>
  </defs>
  <path class="cls-1" d="M91.53,3.38l-.06-.2c-.11-.35-.22-.72-.4-1.07-.74-1.43-7.68-5.16-14.97,2.96-3.1,3.45-5.54,7.33-7.54,11.32-1.92,3.83-2.6,7.98-3.02,11.53-.21,1.81.16,3.55,1.09,5.19,1.11,1.94,2.62,3.05,4.62,3.38.54.09,1.05.13,1.55.13.53,0,1.04-.05,1.55-.15,3.39-.66,6.31-2.45,9.46-5.8,1.03-1.09,1.94-2.31,2.83-3.48l.13-.17c2.98-3.94,4.26-8.13,5.36-12.51.47-1.89-.03-9.33-.59-11.14ZM87.78,11.78c-.63,6.82-3.96,12.62-10.18,17.72-.99.81-2.24,1.45-3.93,2-.5.16-1.35-.12-1.69-.59-.61-.83-.9-1.69-.83-2.35.26-.92.38-1.88.5-2.8.15-1.23.31-2.5.81-3.65.12-.28.22-.57.32-.86.13-.38.25-.73.42-1.06l.2-.37c1.99-3.75,4.04-7.63,6.75-11,.76-.94,1.7-2,2.93-2.71.24-.14.54-.21.83-.21.36,0,.72.1.97.31.48.39,1.03.86,1.53,1.36,1.09,1.08,1.52,2.42,1.36,4.19Z"/>
  <path class="cls-1" d="M110.42,33.78l-.06-.2c-.11-.35-.22-.72-.4-1.07-.74-1.43-7.68-5.16-14.97,2.96-3.1,3.45-5.54,7.33-7.54,11.32-1.92,3.83-2.6,7.98-3.02,11.53-.21,1.81.16,3.55,1.09,5.19,1.11,1.94,2.62,3.05,4.62,3.38.54.09,1.05.13,1.55.13.53,0,1.04-.05,1.55-.15,3.39-.66,6.31-2.45,9.46-5.8,1.03-1.09,1.94-2.31,2.83-3.48l.13-.17c2.98-3.94,4.26-8.13,5.36-12.51.47-1.89-.03-9.33-.59-11.14ZM106.66,42.18c-.63,6.82-3.96,12.62-10.18,17.72-.99.81-2.24,1.45-3.93,2-.5.16-1.35-.12-1.69-.59-.61-.83-.9-1.69-.83-2.35.26-.92.38-1.88.5-2.8.15-1.23.31-2.5.81-3.65.12-.28.22-.57.32-.86.13-.38.25-.73.42-1.06l.2-.37c1.99-3.75,4.04-7.63,6.75-11,.76-.94,1.7-2,2.93-2.71.24-.14.54-.21.83-.21.36,0,.72.1.97.31.48.39,1.03.86,1.53,1.36,1.09,1.08,1.52,2.42,1.36,4.19Z"/>
  <path class="cls-1" d="M49.74,3.8l-.06-.2c-.11-.35-.22-.72-.4-1.07-.74-1.43-7.68-5.16-14.97,2.96-3.1,3.45-5.54,7.33-7.54,11.32-1.92,3.83-2.6,7.98-3.02,11.53-.21,1.81.16,3.55,1.09,5.19,1.11,1.94,2.62,3.05,4.62,3.38.54.09,1.05.13,1.55.13.53,0,1.04-.05,1.55-.15,3.39-.66,6.31-2.45,9.46-5.8,1.03-1.09,1.94-2.31,2.83-3.48l.13-.17c2.98-3.94,4.26-8.13,5.36-12.51.47-1.89-.03-9.33-.59-11.14ZM45.98,12.21c-.63,6.82-3.96,12.62-10.18,17.72-.99.81-2.24,1.45-3.93,2-.5.16-1.35-.12-1.69-.59-.61-.83-.9-1.69-.83-2.35.26-.92.38-1.88.5-2.8.15-1.23.31-2.5.81-3.65.12-.28.22-.57.32-.86.13-.38.25-.73.42-1.06l.2-.37c1.99-3.75,4.04-7.63,6.75-11,.76-.94,1.7-2,2.93-2.71.24-.14.54-.21.83-.21.36,0,.72.1.97.31.48.39,1.03.86,1.53,1.36,1.09,1.08,1.52,2.42,1.36,4.19Z"/>
  <path class="cls-1" d="M66.85,55.33c-.27-.91-.53-1.75-.9-2.47-.45-.72-4.08-3.54-10.25-4.07-.61-.05-1.25-.08-1.92-.08-6.25,0-15.11,2.54-24.7,13.21-7.82,8.71-14.62,18.92-20.77,31.22C3.14,103.5,1.28,114.85.14,124.59c-.51,4.38.39,8.63,2.66,12.63,2.64,4.62,6.04,7.14,10.71,7.92,2.77.46,5.09.45,7.57-.03,8.86-1.72,16.54-6.47,24.92-15.38,2.78-2.96,5.31-6.31,7.75-9.55l.37-.49c8.28-10.95,11.72-22.86,14.54-34.11,1.16-4.64-.17-24.95-1.62-29.65l-.18-.6ZM62.88,78.96h0c-1.87,20.19-11.66,37.28-29.93,52.27-3.13,2.57-6.99,4.55-12.16,6.24-.6.19-1.26.28-1.93.28-2.45,0-5.13-1.22-6.53-3.14-2.15-2.94-3.23-6.19-2.95-8.9l.11-.57c.67-2.35.99-4.92,1.3-7.4.44-3.53.94-7.52,2.54-11.21.3-.69.55-1.4.79-2.12.44-1.29.84-2.41,1.41-3.5l.57-1.06c5.68-10.73,11.56-21.81,19.4-31.56,2.32-2.89,5.23-6.16,9.18-8.44,2.63-1.53,6.57-1.28,8.84.59,1.39,1.14,3.02,2.51,4.56,4.04,3.77,3.75,5.33,8.49,4.78,14.48Z"/>
</svg>