<?xml version="1.0" encoding="UTF-8"?>
<svg id="Layer_1" data-name="Layer 1" xmlns="http://www.w3.org/2000/svg" viewBox="0 0 1061.62 154.98">
  <defs>
    <style>
      .cls-1 {
        fill: #fff;
        stroke: #fff;
        stroke-miterlimit: 10;
        stroke-width: .25px;
      }
    </style>
  </defs>
  <g>
    <path class="cls-1" d="M16.83,147.04c-.91.09-1.83.29-2.74.24-1.63-.11-3.25-.36-4.87-.59-.61-.08-1.2-.24-1.8-.39-2.04-.51-3.81-1.49-5.19-3.11-1.69-1.99-2.38-4.29-2.01-6.86.23-1.62.65-3.2,1.38-4.7,1.44-2.98,3.33-5.64,5.54-8.09,3.94-4.36,8.41-8.09,13.16-11.52,7.76-5.6,16.08-10.23,24.63-14.46,6.25-3.09,12.62-5.91,19.18-8.28,6.94-2.5,14-4.6,21.2-6.22,1.3-.29,2.59-.61,3.89-.87,1.55-.3,2.57-1.19,3.17-2.61,2.17-5.09,4.35-10.17,6.49-15.27.67-1.61,1.24-3.26,1.81-4.9,2.67-7.64,5.53-15.21,7.95-22.94,2.18-6.94,4.06-13.96,5.74-21.04.57-2.39.94-4.82,1.31-7.25.17-1.1.13-2.24.12-3.37-.01-.74-.76-1.32-1.49-1.21-.4.06-.8.14-1.19.26-1.67.51-3.3,1.11-4.87,1.86-5.92,2.85-12.04,5.16-18.3,7.13-5.18,1.63-10.36,3.22-15.62,4.55-3.67.93-7.37,1.71-11.12,2.25-1.73.25-3.45.47-5.19.55-.61.03-1.23.08-1.83.2-2.23.45-4.49.37-6.74.3-1.55-.05-3.03-.51-4.45-1.09-1.48-.6-2.57-1.66-3.35-3.04-.37-.66-.45-1.37-.24-2.08.08-.27.3-.53.51-.74.37-.36,1.07-.39,1.4-.07.29.28.63.55.82.9,1.11,1.98,2.84,2.75,5.04,3.01,1.63.19,3.23.49,4.88.44,1.13-.03,2.24-.08,3.36-.31,1.7-.36,3.44-.47,5.16-.76,6.06-1.02,12.02-2.43,17.91-4.2,5.6-1.68,11.08-3.68,16.53-5.75,2.39-.9,4.73-1.96,7.07-2.99,2.16-.95,4.29-1.94,6.43-2.94,1.62-.77,3.32-1,5.09-.89,1.72.11,2.91,1.02,3.42,2.62.47,1.48.64,2.97.39,4.54-.84,5.16-1.82,10.28-2.97,15.38-.79,3.49-1.89,6.91-2.91,10.35-2.1,7.07-4.33,14.1-6.8,21.05-2.09,5.89-4.33,11.72-6.71,17.5-.9,2.18-1.8,4.36-2.68,6.54-.15.37-.22.78-.31,1.18-.08.34.32.83.69.87.2.02.41.1.6.09,1.23-.08,2.47-.08,3.67-.31,1.11-.21,2.22-.36,3.35-.43.71-.04,1.42-.17,2.14-.25,1.02-.11,2.03-.23,3.05-.32.82-.07,1.66,0,2.45-.18,1.83-.42,3.66-.37,5.51-.37,2.56-.01,5.13-.03,7.69-.03.71,0,1.44.02,2.14.14.38.07.74.34,1.06.58.4.3.31,1.1-.14,1.3-.46.2-.94.44-1.43.49-.81.1-1.64.08-2.46.09-1.85.01-3.69-.02-5.54.01-2.35.04-4.72-.04-7.05.44-.7.14-1.43.11-2.15.14-1.43.07-2.87.08-4.27.44-.49.13-1.02.14-1.53.15-2.98.1-5.87.84-8.8,1.3-.64.1-1.15.46-1.51.98-.47.67-.91,1.37-1.31,2.08-.5.89-.97,1.81-1.43,2.72-2.62,5.24-5.73,10.18-9.12,14.94-1.13,1.59-2.26,3.17-3.4,4.76-1.5,2.08-3.13,4.06-4.89,5.93-1.83,1.94-3.57,3.96-5.44,5.85-3.17,3.21-6.5,6.26-10.11,8.97-6.58,4.94-13.54,9.24-21.16,12.41-3.98,1.65-8.07,2.99-12.28,3.89-2.8.6-5.65,1.02-8.54.94ZM15.54,144.45c1.53-.08,3.08-.07,4.6-.25,1.52-.17,3.04-.46,4.53-.8,5-1.16,9.83-2.84,14.48-5.02,9-4.21,16.93-9.96,24.09-16.81,4.01-3.83,7.69-7.95,11.13-12.29,5.3-6.68,9.92-13.8,13.95-21.31.29-.54.55-1.1.79-1.66.27-.61-.25-1.36-.87-1.25-1.21.22-2.41.48-3.61.71-3.22.62-6.29,1.79-9.46,2.61-3.77.98-7.42,2.34-11.06,3.72-5.84,2.22-11.61,4.59-17.22,7.36-4.32,2.14-8.56,4.4-12.71,6.85-3.7,2.19-7.39,4.41-10.91,6.89-2.6,1.83-5.08,3.8-7.52,5.85-2.29,1.91-4.47,3.92-6.48,6.11-2.02,2.2-3.68,4.65-4.99,7.34-.98,2.01-1.25,4.09-1.01,6.28.17,1.52.92,2.7,2.17,3.55.94.63,1.96,1.07,3.07,1.35,2.3.6,4.64.75,7.01.78Z"/>
    <path class="cls-1" d="M194.81,80.22c-.33.55-.83.91-1.36,1.21-1.51.86-3.03,1.73-4.57,2.52-3.82,1.97-7.66,3.92-11.51,5.83-6.52,3.23-13.24,6.01-20.15,8.3-4.07,1.35-8.16,2.69-12.42,3.43-3.13.54-6.27.95-9.58,1.02-1.81-.03-3.75-.09-5.67-.54-1.53-.36-2.9-1-4.17-1.88-1.42-.99-2.23-2.39-2.44-4.1-.52-4.19.11-8.13,2.42-11.78,2.74-4.33,6.28-7.8,10.6-10.51,2.09-1.31,4.25-2.45,6.69-3.02.86-.2,1.61-.11,2.38.21,1.34.56,2.08,2.13,1.71,3.56-.29,1.11-.8,2.11-1.5,3-1.28,1.62-2.72,3.06-4.46,4.19-2.85,1.85-5.89,3.31-9.14,4.31-.98.3-1.95.62-2.91.97-.8.3-1.36.89-1.71,1.68-.88,2.02-1.14,4.13-.86,6.32.08.62.3,1.18.67,1.69.94,1.29,2.19,2.17,3.73,2.55,3.02.74,6.08.86,9.15.42,11.13-1.61,20.69-5.08,27.63-8.01,5.67-2.39,11.15-5.17,16.61-7.98,2.82-1.45,5.66-2.89,8.5-4.31.45-.22.95-.35,1.44-.49.35-.1.87.2.99.54.11.3.08.59-.09.87ZM131.67,83.1c.1-.02.21.02.3-.01,3.46-1.06,6.51-2.89,9.34-5.11,1.06-.83,1.81-1.93,2.32-3.17.07-.16.04-.45-.07-.58-.18-.22-.45-.36-.64-.49-.28.05-.5.04-.68.12-4.21,1.76-7.83,4.34-10.79,7.82-.18.22-.23.55-.32.83-.08.24.29.63.55.59Z"/>
    <path class="cls-1" d="M276.94,80.23c-.31.67-.92,1.08-1.51,1.49-2.78,1.93-5.65,3.72-8.57,5.42-3.29,1.91-6.73,3.46-10.2,5.01-5.91,2.64-12,4.7-18.29,6.23-2.4.58-4.82.9-7.86.96-.45-.05-1.47-.14-2.48-.28-3.78-.52-6.29-2.77-8.01-6.03-.58-1.1-.99-2.29-1.12-3.5-.27-2.55-.8-5.06-.86-7.63-.04-1.73-.33-3.46-.52-5.19-.02-.2-.13-.38-.19-.58-.11-.33-.75-.61-1.03-.42-.6.39-1.24.74-1.76,1.22-2.27,2.08-4.42,4.26-6.29,6.73-4.28,5.63-8.63,11.21-12.94,16.81-1,1.3-1.95,2.64-2.98,3.92-.57.72-1.2,1.4-1.9,2-.36.31-.9.46-1.39.57-1.12.25-2.1-.47-2.22-1.57-.12-1.13-.09-2.26.14-3.37.2-1,.45-2,.73-2.98,1.27-4.44,2.84-8.77,4.99-12.88,1.33-2.54,2.58-5.13,3.89-7.68.51-1,1.06-2,1.67-2.93.33-.5.83-.89,1.28-1.3.34-.3,1.08-.24,1.43.06.38.31.63.97.48,1.37-.71,1.81-1.52,3.58-2.43,5.3-2.87,5.44-5.42,11.04-7.42,16.87-.33.96-.59,1.95-.84,2.94-.03.13.14.32.26.46.03.03.22-.01.28-.07.55-.6,1.13-1.18,1.62-1.83,3.71-4.9,7.41-9.82,11.11-14.73,2.78-3.69,5.8-7.17,9.19-10.32.92-.86,1.91-1.53,3.12-1.89,1.18-.35,2.85.25,3.51,1.34.32.52.63,1.08.77,1.66.34,1.39.71,2.78.7,4.23,0,1.23.07,2.46.09,3.69.04,2.8.71,5.48,1.71,8.08,1.04,2.7,3.01,4.29,5.83,4.92,2.04.45,4.03.45,6.09.04,6.86-1.35,13.52-3.29,19.9-6.15,1.78-.8,3.55-1.59,5.32-2.4,4.47-2.07,8.73-4.52,12.74-7.41.66-.48,1.36-.92,2.08-1.3.34-.18.79-.23,1.18-.19.27.02.62.23.74.46.12.22.07.61-.04.86Z"/>
    <path class="cls-1" d="M359.03,80.23c-.31.67-.92,1.08-1.51,1.49-2.78,1.93-5.65,3.72-8.57,5.42-3.29,1.91-6.73,3.46-10.2,5.01-5.91,2.64-12,4.7-18.29,6.23-2.4.58-4.82.9-7.86.96-.45-.05-1.47-.14-2.48-.28-3.78-.52-6.29-2.77-8.01-6.03-.58-1.1-.99-2.29-1.12-3.5-.27-2.55-.8-5.06-.86-7.63-.04-1.73-.33-3.46-.52-5.19-.02-.2-.13-.38-.19-.58-.11-.33-.75-.61-1.03-.42-.6.39-1.24.74-1.76,1.22-2.27,2.08-4.42,4.26-6.29,6.73-4.28,5.63-8.63,11.21-12.94,16.81-1,1.3-1.95,2.64-2.98,3.92-.57.72-1.2,1.4-1.9,2-.36.31-.9.46-1.39.57-1.12.25-2.1-.47-2.22-1.57-.12-1.13-.09-2.26.14-3.37.2-1,.45-2,.73-2.98,1.27-4.44,2.84-8.77,4.99-12.88,1.33-2.54,2.58-5.13,3.89-7.68.51-1,1.06-2,1.67-2.93.33-.5.83-.89,1.28-1.3.34-.3,1.08-.24,1.43.06.38.31.63.97.48,1.37-.71,1.81-1.52,3.58-2.43,5.3-2.87,5.44-5.42,11.04-7.42,16.87-.33.96-.59,1.95-.84,2.94-.03.13.14.32.26.46.03.03.22-.01.28-.07.55-.6,1.13-1.18,1.62-1.83,3.71-4.9,7.41-9.82,11.11-14.73,2.78-3.69,5.8-7.17,9.19-10.32.92-.86,1.91-1.53,3.12-1.89,1.18-.35,2.85.25,3.51,1.34.32.52.63,1.08.77,1.66.34,1.39.71,2.78.7,4.23,0,1.23.07,2.46.09,3.69.04,2.8.71,5.48,1.71,8.08,1.04,2.7,3.01,4.29,5.83,4.92,2.04.45,4.03.45,6.09.04,6.86-1.35,13.52-3.29,19.9-6.15,1.78-.8,3.55-1.59,5.32-2.4,4.47-2.07,8.73-4.52,12.74-7.41.66-.48,1.36-.92,2.08-1.3.34-.18.79-.23,1.18-.19.27.02.62.23.74.46.12.22.07.61-.04.86Z"/>
    <path class="cls-1" d="M421.5,80.26c-.2.23-.38.5-.63.66-.51.34-1.04.65-1.6.91-8.64,4-17.29,7.98-26.2,11.35-4.02,1.52-8.08,2.92-12.14,4.35-2.52.89-5.16,1.27-7.74,1.89-1.29.31-2.61.52-3.91.77-.7.14-1.4.35-2.11.41-.92.07-1.84.02-2.76.02h0c-.92.01-1.85.09-2.76,0-2.68-.26-4.57-1.63-5.57-4.17-.73-1.86-.94-3.78-.55-5.73.79-3.95,2.04-7.72,4.33-11.08.81-1.18,1.58-2.4,2.44-3.54.36-.47.89-.83,1.38-1.19.36-.26,1.05-.15,1.44.16.4.32.61.93.44,1.37-.18.48-.35.97-.6,1.41-.46.8-.96,1.57-1.47,2.34-2.13,3.18-3.54,6.69-4.6,10.34-.5,1.71-.47,3.44.24,5.11.38.89.99,1.51,1.95,1.82.98.32,1.97.49,3,.55,2.69.15,5.31-.35,7.91-.87,2.5-.51,4.98-1.14,7.45-1.81,1.77-.48,3.52-1.07,5.25-1.7,5.29-1.91,10.59-3.81,15.77-6.01,2.73-1.16,5.45-2.36,8.15-3.59,3.17-1.44,6.31-2.93,9.48-4.38.56-.26,1.13-.5,1.72-.65.38-.09.81-.02,1.2.04.47.07.77.88.47,1.23ZM369.1,65.89c.01-.2.02-.41.07-.6.37-1.21,1.06-2.2,2.14-2.87.33-.2.74-.25.9-.3.81.07,1.46.79,1.35,1.28-.39,1.65-1.15,3.02-2.79,3.75-.7.31-1.71-.44-1.67-1.27Z"/>
    <path class="cls-1" d="M475.57,80.66c-.46.4-.96.76-1.48,1.08-3.06,1.89-6.35,3.33-9.67,4.69-3.13,1.28-6.32,2.38-9.59,3.27-1.88.51-3.72,1.15-5.58,1.71-3.53,1.07-7.16,1.73-10.76,2.51-2.7.59-5.4,1.18-8.12,1.66-1.61.28-3.24.42-4.86.72-1.81.33-3.65.49-5.48.72-.66.08-1.19.4-1.49.96-.58,1.08-1.15,2.18-1.59,3.32-.97,2.48-1.83,5-2.78,7.49-.45,1.18-.58,2.38-.56,3.62.03,1.95,0,3.9.07,5.84.13,3.5-.21,6.96-.9,10.39-.34,1.71-.67,3.42-1.07,5.11-1.39,5.8-3.37,11.39-6.1,16.7-.42.82-.88,1.62-1.36,2.41-.49.82-1.21,1.38-2.07,1.78-1.07.5-2.35.03-2.85-1.05-.45-.95-.63-1.95-.49-2.99.39-2.94.76-5.89,1.51-8.77.87-3.37,1.62-6.77,2.73-10.08.16-.49.33-.97.45-1.47,1.46-5.87,3.62-11.53,5.53-17.26,1.51-4.51,1.33-3.6-.09-7.65-.97-2.76-2.56-5.13-4.83-7.01-.55-.45-1.03-.98-1.52-1.51-.28-.31.07-1.18.49-1.26.3-.06.6-.13.91-.14.82-.02,1.64,0,2.46,0,1.64,0,3.27.06,4.9-.33.89-.21,1.84-.17,2.75-.29.86-.11,1.56-.55,1.95-1.33.69-1.37,1.41-2.74,1.99-4.16,3.12-7.7,6.46-15.29,10.01-22.8,2.32-4.91,4.82-9.73,7.36-14.54,4.7-8.89,9.94-17.46,15.09-26.08.74-1.23,1.53-2.43,2.33-3.62,1.2-1.79,2.33-3.62,3.51-5.42,1.51-2.31,3.2-4.51,4.86-6.73,1.29-1.72,2.66-3.38,3.96-5.1,1.33-1.75,3.07-3,4.86-4.21.33-.23.72-.39,1.11-.53,2.26-.84,3.89,1.01,3.92,2.63.02.83-.1,1.63-.33,2.42-.64,2.16-1.42,4.28-2.35,6.33-1.44,3.18-3.11,6.24-4.93,9.21-4.81,7.88-9.84,15.61-15.23,23.11-2.87,3.99-5.96,7.83-8.99,11.71-1.95,2.51-3.93,4.99-5.97,7.43-1.64,1.96-3.33,3.9-5.11,5.74-2.09,2.17-3.71,4.63-4.88,7.4-1.64,3.87-3.31,7.72-4.95,11.59-.44,1.04-.84,2.09-1.19,3.16-.19.58-.27,1.2-.31,1.81-.05.8.4,1.35,1.32,1.2,2.32-.37,4.66-.69,6.98-1.05,5.47-.84,10.9-1.84,16.24-3.26,4.06-1.07,8.09-2.24,12.08-3.54,4.78-1.56,9.41-3.48,13.88-5.79.73-.38,1.45-.76,2.2-1.11.37-.17.77-.28,1.16-.38.5-.13,1.16.21,1.26.61.12.45-.09.83-.39,1.09ZM410.95,120.7c-.04-.18-.16-.33-.25-.5-.17.09-.43.14-.5.28-1.11,2.2-1.88,4.53-2.57,6.89-.8,2.75-1.55,5.52-2.36,8.27-1.04,3.54-1.94,7.11-2.61,10.73-.11.6-.13,1.22-.14,1.83,0,.13.19.28.33.39.04.03.22-.02.27-.09.33-.51.72-1,.96-1.55,1.84-4.23,3.58-8.5,4.81-12.95.62-2.27,1.21-4.55,1.41-6.91.09-1.12.19-2.24.44-3.34.18-.79.2-1.62.23-1.88,0-.77.03-.98,0-1.17ZM413.3,98.06c-.38-.14-.76-.25-1.13-.36-.45.07-.85.1-1.24.2-2.26.53-2.56.48-1.39,2.68.38.72.77,1.43,1.18,2.13.15.26.35.5.53.75.26.36.81.38,1.02.04.11-.17.25-.32.34-.5.59-1.18,1.05-2.42,1.36-3.71.12-.48-.17-1.04-.66-1.23ZM435.39,60.75c.17-.06.4-.07.51-.19.9-.98,1.81-1.96,2.67-2.97,2.45-2.9,4.63-6.01,6.94-9.01,6.45-8.37,12.42-17.07,17.94-26.07,2.25-3.67,4.39-7.4,6.28-11.28.99-2.03,1.76-4.15,2.33-6.33.07-.29.06-.6.09-.96-.27-.14-.52-.31-.79-.37-.17-.04-.43.04-.57.15-.73.56-1.51,1.08-2.12,1.76-1.24,1.36-2.4,2.8-3.55,4.24-3.01,3.77-5.63,7.81-8.2,11.89-7.17,11.36-13.79,23.03-19.89,35-.6,1.18-1.17,2.39-1.73,3.6-.06.14.06.37.1.56Z"/>
    <path class="cls-1" d="M541.27,80.22c-.33.55-.83.91-1.36,1.21-1.51.86-3.03,1.73-4.57,2.52-3.82,1.97-7.66,3.92-11.51,5.83-6.52,3.23-13.24,6.01-20.15,8.3-4.07,1.35-8.16,2.69-12.42,3.43-3.13.54-6.27.95-9.58,1.02-1.81-.03-3.75-.09-5.67-.54-1.53-.36-2.9-1-4.17-1.88-1.42-.99-2.23-2.39-2.44-4.1-.52-4.19.11-8.13,2.42-11.78,2.74-4.33,6.28-7.8,10.6-10.51,2.09-1.31,4.25-2.45,6.69-3.02.86-.2,1.61-.11,2.38.21,1.34.56,2.08,2.13,1.71,3.56-.29,1.11-.8,2.11-1.5,3-1.28,1.62-2.72,3.06-4.46,4.19-2.85,1.85-5.89,3.31-9.14,4.31-.98.3-1.95.62-2.91.97-.8.3-1.36.89-1.71,1.68-.88,2.02-1.14,4.13-.86,6.32.08.62.3,1.18.67,1.69.94,1.29,2.19,2.17,3.73,2.55,3.02.74,6.08.86,9.15.42,11.13-1.61,20.69-5.08,27.63-8.01,5.67-2.39,11.15-5.17,16.61-7.98,2.82-1.45,5.66-2.89,8.5-4.31.45-.22.95-.35,1.44-.49.35-.1.87.2.99.54.11.3.08.59-.09.87ZM478.14,83.1c.1-.02.21.02.3-.01,3.46-1.06,6.51-2.89,9.34-5.11,1.06-.83,1.81-1.93,2.32-3.17.07-.16.04-.45-.07-.58-.18-.22-.45-.36-.64-.49-.28.05-.5.04-.68.12-4.21,1.76-7.83,4.34-10.79,7.82-.18.22-.23.55-.32.83-.08.24.29.63.55.59Z"/>
    <path class="cls-1" d="M606.81,80.26c-.28.29-.56.62-.9.82-.79.46-1.61.89-2.45,1.27-5.6,2.56-11.42,4.48-17.38,6-1.29.33-2.59.62-3.88.92-.4.09-.8.25-1.19.26-2.06.03-4.05.57-6.07.86-1.42.2-2.84.34-4.28.36-3.72-.01-7.32-.69-10.79-2.03-3.21-1.24-5.46-3.55-6.91-6.64-.26-.55-.39-1.16-.83-1.62-.37-.39-.98-.52-1.36-.14-.72.72-1.49,1.41-2.1,2.23-1.64,2.22-3.21,4.5-4.81,6.76-1.31,1.85-2.34,3.85-3.11,5.98-.94,2.61-2.13,5.1-3.39,7.56-.52,1.01-1.12,1.95-1.97,2.72-.65.6-1.4.8-2.26.69-.74-.09-1.29-.69-1.34-1.44-.06-.83.04-1.64.41-2.39.83-1.64,1.66-3.29,2.54-4.91.44-.81.95-1.58,1.45-2.35,1.62-2.51,2.75-5.25,3.73-8.06,1.78-5.12,3.57-10.24,5.39-15.36.41-1.15.93-2.27,1.44-3.38.12-.26.41-.45.63-.65.26-.23.83-.21,1.14.02.35.25.62.58.63,1,0,.61.01,1.24-.15,1.82-.45,1.57-.98,3.12-1.48,4.68-.41,1.26-.84,2.53-.95,3.86,0,.08.09.2.17.25.08.05.23.09.28.04.4-.3.8-.61,1.19-.94.78-.66,1.51-1.39,2.33-1.98,1.52-1.09,2.99-.79,3.91.76.47.79.84,1.64,1.25,2.46.41.82.79,1.67,1.23,2.47.81,1.47,1.97,2.61,3.44,3.42,1.9,1.05,3.89,1.81,6.07,2.02.81.08,1.62.25,2.43.34,1.94.22,3.87.28,5.81-.06,2.11-.37,4.25-.63,6.37-.98.91-.15,1.8-.36,2.7-.56,3.5-.79,6.93-1.76,10.3-3.02,3.36-1.25,6.72-2.48,9.99-3.94.46-.21.96-.35,1.46-.44.29-.05.61.03.91.09.45.08.73.91.42,1.24Z"/>
    <path class="cls-1" d="M753.31,132.47c0-2.46-.08-4.93.54-7.34.15-3.29.84-6.5,1.41-9.72.51-2.92,1.15-5.83,1.85-8.71,2.67-11.06,5.74-22,9.64-32.7,1.23-3.37,2.36-6.77,3.49-10.17,1.75-5.26,3.89-10.36,5.94-15.5,2.19-5.52,4.34-11.07,6.23-16.7,1.67-4.96,3.03-10,3.9-15.16.43-2.55.38-5.11.21-7.67-.08-1.25-.64-2.38-1.47-3.32-.7-.8-1.59-1.26-2.69-1.3-1.65-.06-3.26.09-4.84.63-3.7,1.25-7.26,2.81-10.55,4.94-4.83,3.12-9.45,6.5-13.8,10.27-3.33,2.89-6.5,5.95-9.68,9.01-2.06,1.99-4.19,3.92-6.2,5.98-4.73,4.84-9.45,9.69-14.06,14.64-3.07,3.3-6.03,6.71-8.84,10.24-2.04,2.57-4.1,5.12-6.23,7.62-1.23,1.44-2.03,3.06-2.53,4.86-1.26,4.54-2.65,9.04-4.18,13.5-2.1,6.11-4.36,12.15-7,18.05-1.55,3.46-3.2,6.88-4.88,10.27-1.87,3.77-3.94,7.42-6.18,10.99-1.14,1.82-2.42,3.56-3.72,5.27-.68.89-1.51,1.67-2.36,2.41-1.04.92-2.3,1.3-3.71,1.14-.88-.1-1.54-.54-1.98-1.29-.36-.62-.66-1.28-.7-2.02-.09-1.54-.09-3.06.31-4.58,1.26-4.77,2.93-9.38,5.02-13.85,4.66-9.96,10.16-19.44,16.4-28.49,2.56-3.71,5.19-7.38,7.87-11.01,1.18-1.6,2-3.31,2.47-5.23,1.03-4.18,2.05-8.36,2.77-12.6.73-4.24,1.57-8.47,1.89-12.76.34-4.5.4-9.02.09-13.53-.08-1.12-.33-2.23-.57-3.33-.11-.49-.36-.96-.62-1.39-.38-.61-.84-1.17-1.24-1.76-.24-.35-.36-.74-.15-1.15.24-.46,1.06-.86,1.57-.78.83.13,1.6.43,2.11,1.14,1.27,1.79,2.02,3.79,2.27,5.97.08.71.06,1.43.08,2.15.05,1.64.06,3.27.28,4.91.16,1.2.02,2.45-.02,3.68-.02.61-.21,1.22-.2,1.83.05,3.29-.52,6.53-.82,9.8-.14,1.53-.44,3.04-.7,4.55-.31,1.82-.66,3.62-.98,5.44-.05.3,0,.61.02.91,0,.09.08.24.15.26.17.05.42.13.53.05.34-.22.66-.49.92-.79.8-.93,1.59-1.88,2.37-2.83,3.1-3.82,6.45-7.43,9.74-11.09,7.74-8.64,16.03-16.73,24.41-24.74,3.63-3.47,7.38-6.82,11.47-9.76,1.75-1.26,3.55-2.43,5.35-3.61,1.2-.78,2.44-1.51,3.66-2.26,2.8-1.73,5.76-3.14,8.95-3.98,1.38-.37,2.8-.62,4.2-.87.49-.09,1.03-.07,1.53.02.91.15,1.82.35,2.7.6,1.43.42,2.56,1.25,3.32,2.57.99,1.71,1.61,3.55,1.74,5.52.2,3.29.02,6.55-.68,9.78-1.18,5.41-2.69,10.72-4.47,15.97-1.71,5.05-3.7,9.99-5.68,14.94-2.65,6.66-5.15,13.39-7.56,20.14-2.42,6.76-4.59,13.59-6.68,20.45-1.38,4.5-2.53,9.08-3.67,13.65-1.02,4.07-1.91,8.18-2.81,12.28-.48,2.2-.97,4.4-1.06,6.67-.92,4.98-.64,10.01-.54,15.03.07,3.76,1.57,6.72,4.83,8.72.34.21.62.51.9.8.24.25.18.88-.07,1.13-.56.55-1.24.72-1.98.51-1.98-.56-3.43-1.8-4.43-3.57-.86-1.53-1.47-3.17-1.81-4.88-.43-2.11-.79-4.23-.74-6.4.02-.82,0-1.64,0-2.46ZM674.04,128.82s-.01.21,0,.42c.02.2.06.4.09.61.04.29.34.68.54.65.19-.02.42-.02.57-.12.96-.62,1.65-1.52,2.34-2.41,2.72-3.48,4.92-7.28,6.9-11.22,3.22-6.4,6.13-12.94,8.8-19.58,1.79-4.46,3.49-8.95,4.96-13.53.19-.58.27-1.19.35-1.79.02-.13-.17-.31-.3-.43-.05-.04-.22-.02-.29.03-.76.55-1.24,1.36-1.74,2.12-2.53,3.85-5.1,7.67-7.55,11.56-3.43,5.46-6.56,11.09-9.19,16.99-1.58,3.55-3.11,7.12-4.29,10.83-.59,1.86-1.09,3.73-1.19,5.88Z"/>
    <path class="cls-1" d="M853.76,80.29c-.2.23-.4.48-.65.64-.34.23-.7.44-1.08.58-6.05,2.23-12.14,4.36-18.52,5.46-2.11.36-4.22.83-6.39.82-.51,0-1.04.01-1.53.13-2.43.61-4.89.38-7.35.38-.61,0-1.22-.11-1.83-.18-1.02-.12-2.03-.32-3.04-.34-2.07-.04-4.08-.39-6.06-.92-1.1-.3-2.2-.47-3.34-.39-.55.04-.97.35-1.15.87-.17.48-.32.97-.39,1.47-.46,3.33-1.82,6.28-3.83,8.94-.68.9-1.36,1.81-2.13,2.63-1.85,1.97-3.94,3.58-6.69,4.11-.72.14-1.4.13-2.13.01-1.43-.24-2.41-1.07-3.1-2.28-.63-1.1-.89-2.3-.75-3.55.33-2.85.85-5.66,2.16-8.27,1.48-2.95,3.3-5.67,5.44-8.17,2.2-2.58,4.72-4.84,7.42-6.89.57-.44,1.19-.79,1.9-.99.41-.11.8-.05,1.17.16.57.33.84,1.04.59,1.57-.13.28-.23.59-.43.81-.88.96-.93,1.99-.35,3.11.14.27.22.57.31.87.47,1.51,1.55,2.4,3.02,2.78,2.28.58,4.53,1.22,6.88,1.52,2.55.32,5.08.64,7.64.57,1.94-.08,3.89.08,5.8-.47.48-.14,1.01-.12,1.52-.16,5.33-.36,10.55-1.32,15.62-3.04,2.91-.99,5.82-1.96,8.73-2.94.69-.23,1.39-.34,2.11-.12.42.13.7.94.41,1.27ZM798.91,83.57c-.36-.36-.75-.69-1.14-1.01-.46-.38-1.22-.4-1.73-.11-.9.52-1.59,1.26-2.23,2.06-2.06,2.56-3.57,5.45-5.1,8.33-.24.45-.35.95-.55,1.42-.66,1.53-.53,3.21-.97,4.74-.07.64.17,1.35.66,2.03.34.46,1.11.73,1.64.56,1.07-.35,2.11-.8,2.98-1.52,4.17-3.43,7.03-7.6,7.54-13.15.12-1.32-.16-2.42-1.09-3.35Z"/>
    <path class="cls-1" d="M924.7,81.02c-.34.54-.9.84-1.44,1.11-2.47,1.24-4.99,2.4-7.6,3.31-7.74,2.71-15.54,5.16-23.61,6.75-2.41.47-4.78,1.13-7.18,1.63-2.3.48-4.63.85-6.94,1.32-1.8.36-3.59.81-5.39,1.2-1.21.27-1.96,1.05-2.45,2.13-.25.56-.45,1.14-.68,1.71-.88,2.1-2.09,4-3.55,5.73-.46.55-.96,1.07-1.5,1.54-3.87,3.32-8.21,5.76-13.17,7.05-1.7.44-3.42.53-5.17.46-.61-.04-1.23-.05-1.84-.14-2.1-.3-3.58-1.41-4.31-3.44-.36-1-.36-2.01-.01-3.01.27-.78.66-1.5,1.17-2.15,1.09-1.38,2.33-2.61,3.79-3.58,3.01-1.98,6.23-3.57,9.69-4.6,3.14-.93,6.32-1.72,9.49-2.53.71-.18,1.37-.42,1.99-.78.46-.27.77-1.09.57-1.63-.18-.48-.36-.96-.64-1.39-.89-1.38-1.88-2.69-3.09-3.82-.6-.56-1.2-1.12-1.78-1.7-.96-.94-1.75-2.01-2.29-3.25-.21-.47-.41-.94-.64-1.39-.2-.4-.57-.57-1-.59-.61-.03-1.22-.02-1.83-.08-.45-.04-.76-.83-.51-1.23.16-.26.31-.54.53-.74.46-.41.94-.8,1.44-1.14,1.47-.99,2.7-2.22,3.61-3.73,1.83-3.05,4.5-5.3,7.09-7.63.69-.62,1.53-1,2.43-1.28.65-.2,1.2-.06,1.73.32.54.39.74,1.07.54,1.63-.33.88-.86,1.63-1.48,2.32-1.32,1.44-2.76,2.75-4.27,3.99-1.03.85-2.04,1.72-3.03,2.61-.77.69-1.37,1.53-1.76,2.5-.44,1.1-.48,2.22.2,3.24.51.76,1.08,1.5,1.68,2.19.61.69,1.28,1.33,1.95,1.97,1.64,1.57,3.09,3.29,4.14,5.32.28.54.62,1.07,1.02,1.53.56.66,1.32.99,2.2.83,2.22-.39,4.43-.8,6.64-1.25,3.51-.72,7-1.53,10.51-2.22,3.92-.76,7.78-1.8,11.64-2.8,2.58-.66,5.12-1.47,7.66-2.26,2.84-.88,5.6-1.99,8.32-3.18,1.6-.7,3.22-1.34,4.82-2.02.58-.24,1.17-.34,1.8-.24.33.05.55.26.68.54.14.31,0,.6-.16.86ZM866.02,99.17c.05-.34-.37-.86-.68-.9-.2-.03-.4-.06-.91-.13-.51.1-1.32.21-2.11.41-1.68.43-3.34.95-5.03,1.36-3.21.78-6.17,2.16-9.1,3.62-1.21.6-2.26,1.41-3.25,2.29-1,.88-1.86,1.9-2.42,3.14-.49,1.08-.1,2.47.97,2.88.94.36,1.96.52,2.95.76,1.5-.28,3.02-.5,4.51-.84,3.35-.76,6.27-2.45,9.05-4.41,1.6-1.13,2.97-2.52,4.14-4.08.61-.81,1.11-1.72,1.57-2.63.22-.44.24-.98.31-1.48Z"/>
    <path class="cls-1" d="M990.23,80.22c-.33.55-.83.91-1.36,1.21-1.51.86-3.03,1.73-4.57,2.52-3.82,1.97-7.66,3.92-11.51,5.83-6.52,3.23-13.24,6.01-20.15,8.3-4.07,1.35-8.16,2.69-12.42,3.43-3.13.54-6.27.95-9.58,1.02-1.81-.03-3.75-.09-5.67-.54-1.53-.36-2.9-1-4.17-1.88-1.42-.99-2.23-2.39-2.44-4.1-.52-4.19.11-8.13,2.42-11.78,2.74-4.33,6.28-7.8,10.6-10.51,2.09-1.31,4.25-2.45,6.69-3.02.86-.2,1.61-.11,2.38.21,1.34.56,2.08,2.13,1.71,3.56-.29,1.11-.8,2.11-1.5,3-1.28,1.62-2.72,3.06-4.46,4.19-2.85,1.85-5.89,3.31-9.14,4.31-.98.3-1.95.62-2.91.97-.8.3-1.36.89-1.71,1.68-.88,2.02-1.14,4.13-.86,6.32.08.62.3,1.18.67,1.69.94,1.29,2.19,2.17,3.73,2.55,3.02.74,6.08.86,9.15.42,11.13-1.61,20.69-5.08,27.63-8.01,5.67-2.39,11.15-5.17,16.61-7.98,2.82-1.45,5.66-2.89,8.5-4.31.45-.22.95-.35,1.44-.49.35-.1.87.2.99.54.11.3.08.59-.09.87ZM927.09,83.1c.1-.02.21.02.3-.01,3.46-1.06,6.51-2.89,9.34-5.11,1.06-.83,1.81-1.93,2.32-3.17.07-.16.04-.45-.07-.58-.18-.22-.45-.36-.64-.49-.28.05-.5.04-.68.12-4.21,1.76-7.83,4.34-10.79,7.82-.18.22-.23.55-.32.83-.08.24.29.63.55.59Z"/>
    <path class="cls-1" d="M1061.27,81.02c-.34.54-.9.84-1.44,1.11-2.48,1.24-4.99,2.4-7.6,3.31-7.74,2.71-15.54,5.16-23.61,6.75-2.41.47-4.78,1.13-7.18,1.63-2.3.48-4.63.85-6.94,1.32-1.8.36-3.59.81-5.39,1.2-1.21.27-1.96,1.05-2.45,2.13-.25.56-.45,1.14-.68,1.71-.88,2.1-2.09,4-3.55,5.73-.46.55-.96,1.07-1.5,1.54-3.87,3.32-8.21,5.76-13.17,7.05-1.7.44-3.42.53-5.17.46-.61-.04-1.23-.05-1.84-.14-2.1-.3-3.58-1.41-4.31-3.44-.36-1-.36-2.01-.01-3.01.27-.78.66-1.5,1.17-2.15,1.09-1.38,2.33-2.61,3.79-3.58,3.01-1.98,6.23-3.57,9.69-4.6,3.14-.93,6.32-1.72,9.49-2.53.71-.18,1.37-.42,1.99-.78.46-.27.77-1.09.57-1.63-.18-.48-.36-.96-.64-1.39-.89-1.38-1.88-2.69-3.09-3.82-.6-.56-1.2-1.12-1.78-1.7-.96-.94-1.75-2.01-2.29-3.25-.21-.47-.41-.94-.64-1.39-.2-.4-.57-.57-1-.59-.61-.03-1.22-.02-1.83-.08-.45-.04-.76-.83-.51-1.23.16-.26.31-.54.53-.74.46-.41.94-.8,1.44-1.14,1.47-.99,2.7-2.22,3.61-3.73,1.83-3.05,4.5-5.3,7.09-7.63.69-.62,1.53-1,2.43-1.28.65-.2,1.2-.06,1.73.32.54.39.74,1.07.54,1.63-.33.88-.86,1.63-1.48,2.32-1.32,1.44-2.76,2.75-4.27,3.99-1.03.85-2.04,1.72-3.03,2.61-.77.69-1.37,1.53-1.76,2.5-.44,1.1-.48,2.22.2,3.24.51.76,1.08,1.5,1.68,2.19.61.69,1.28,1.33,1.95,1.97,1.64,1.57,3.09,3.29,4.14,5.32.28.54.62,1.07,1.02,1.53.56.66,1.32.99,2.2.83,2.22-.39,4.43-.8,6.64-1.25,3.51-.72,7-1.53,10.51-2.22,3.92-.76,7.78-1.8,11.64-2.8,2.58-.66,5.12-1.47,7.66-2.26,2.84-.88,5.6-1.99,8.32-3.18,1.6-.7,3.22-1.34,4.82-2.02.58-.24,1.17-.34,1.8-.24.33.05.55.26.68.54.14.31,0,.6-.16.86ZM1002.59,99.17c.05-.34-.37-.86-.68-.9-.2-.03-.4-.06-.91-.13-.51.1-1.32.21-2.11.41-1.68.43-3.34.95-5.03,1.36-3.21.78-6.17,2.16-9.1,3.62-1.21.6-2.26,1.41-3.26,2.29-1,.88-1.86,1.9-2.41,3.14-.49,1.08-.1,2.47.97,2.88.94.36,1.96.52,2.95.76,1.5-.28,3.02-.5,4.51-.84,3.35-.76,6.27-2.45,9.05-4.41,1.6-1.13,2.97-2.52,4.14-4.08.61-.81,1.11-1.72,1.57-2.63.22-.44.24-.98.31-1.48Z"/>
  </g>
  <path class="cls-1" d="M812.69,58.13l-.02-.06c-.03-.11-.07-.22-.12-.33-.23-.45-2.4-1.61-4.67.93-.97,1.08-1.73,2.29-2.35,3.53-.6,1.2-.81,2.49-.94,3.6-.07.56.05,1.11.34,1.62.35.61.82.95,1.44,1.06.17.03.33.04.48.04.16,0,.32-.02.48-.05,1.06-.21,1.97-.76,2.95-1.81.32-.34.61-.72.88-1.09l.04-.05c.93-1.23,1.33-2.54,1.67-3.9.15-.59-.01-2.91-.19-3.48ZM811.52,60.75c-.2,2.13-1.24,3.94-3.18,5.53-.31.25-.7.45-1.23.63-.16.05-.42-.04-.53-.18-.19-.26-.28-.53-.26-.73.08-.29.12-.59.16-.87.05-.38.1-.78.25-1.14.04-.09.07-.18.1-.27.04-.12.08-.23.13-.33l.06-.12c.62-1.17,1.26-2.38,2.11-3.43.24-.29.53-.62.91-.85.08-.04.17-.07.26-.07.11,0,.22.03.3.1.15.12.32.27.48.42.34.34.47.75.42,1.31Z"/>
  <path class="cls-1" d="M819.48,67.35l-.02-.06c-.03-.11-.07-.22-.12-.33-.23-.45-2.4-1.61-4.67.93-.97,1.08-1.73,2.29-2.35,3.53-.6,1.2-.81,2.49-.94,3.6-.07.56.05,1.11.34,1.62.35.61.82.95,1.44,1.06.17.03.33.04.48.04.16,0,.32-.02.48-.05,1.06-.21,1.97-.76,2.95-1.81.32-.34.61-.72.88-1.09l.04-.05c.93-1.23,1.33-2.54,1.67-3.9.15-.59-.01-2.91-.19-3.48ZM818.3,69.97c-.2,2.13-1.24,3.94-3.18,5.53-.31.25-.7.45-1.23.63-.16.05-.42-.04-.53-.18-.19-.26-.28-.53-.26-.73.08-.29.12-.59.16-.87.05-.38.1-.78.25-1.14.04-.09.07-.18.1-.27.04-.12.08-.23.13-.33l.06-.12c.62-1.17,1.26-2.38,2.11-3.43.24-.29.53-.62.91-.85.08-.04.17-.07.26-.07.11,0,.22.03.3.1.15.12.32.27.48.42.34.34.47.75.42,1.31Z"/>
  <path class="cls-1" d="M800.61,58.13l-.02-.06c-.03-.11-.07-.22-.12-.33-.23-.45-2.4-1.61-4.67.93-.97,1.08-1.73,2.29-2.35,3.53-.6,1.2-.81,2.49-.94,3.6-.07.56.05,1.11.34,1.62.35.61.82.95,1.44,1.06.17.03.33.04.48.04.16,0,.32-.02.48-.05,1.06-.21,1.97-.76,2.95-1.81.32-.34.61-.72.88-1.09l.04-.05c.93-1.23,1.33-2.54,1.67-3.9.15-.59-.01-2.91-.19-3.48ZM799.44,60.75c-.2,2.13-1.24,3.94-3.18,5.53-.31.25-.7.45-1.23.63-.16.05-.42-.04-.53-.18-.19-.26-.28-.53-.26-.73.08-.29.12-.59.16-.87.05-.38.1-.78.25-1.14.04-.09.07-.18.1-.27.04-.12.08-.23.13-.33l.06-.12c.62-1.17,1.26-2.38,2.11-3.43.24-.29.53-.62.91-.85.08-.04.17-.07.26-.07.11,0,.22.03.3.1.15.12.32.27.48.42.34.34.47.75.42,1.31Z"/>
</svg>